<svg width="18" height="17" viewBox="0 0 18 17" fill="none" xmlns="http://www.w3.org/2000/svg">
<path d="M2.54832 6.77412C2.54832 3.21099 5.43681 0.32251 8.99994 0.32251C12.5631 0.32251 15.4516 3.211 15.4516 6.77413V8.74291C15.4516 10.2691 15.8663 11.7665 16.6515 13.0752L17.2466 14.067C17.6413 14.7248 17.8386 15.0537 17.8521 15.3222C17.8731 15.7382 17.6519 16.1289 17.2844 16.325C17.0471 16.4516 16.6636 16.4516 15.8965 16.4516H2.10348C1.33633 16.4516 0.952762 16.4516 0.715502 16.325C0.348028 16.1289 0.12684 15.7383 0.14777 15.3223C0.161284 15.0537 0.358627 14.7248 0.753313 14.067L1.34839 13.0751C2.13356 11.7665 2.54832 10.2691 2.54832 8.74294V6.77412Z" fill="#81ABFF"/>
</svg>
