<svg width="19" height="17" viewBox="0 0 19 17" fill="none" xmlns="http://www.w3.org/2000/svg">
<path d="M3.22574 6.45161C3.22574 2.88848 6.11424 0 9.67737 0V0C13.2405 0 16.129 2.88849 16.129 6.45162V8.4204C16.129 9.94654 16.5438 11.444 17.329 12.7527L17.924 13.7445C18.3187 14.4023 18.5161 14.7312 18.5296 14.9997C18.5505 15.4157 18.3293 15.8064 17.9618 16.0025C17.7246 16.1291 17.341 16.1291 16.5739 16.1291H2.78091C2.01376 16.1291 1.63019 16.1291 1.39293 16.0025C1.02546 15.8064 0.804269 15.4157 0.8252 14.9998C0.838713 14.7312 1.03606 14.4023 1.43074 13.7444L2.02581 12.7526C2.81099 11.444 3.22574 9.94655 3.22574 8.42043V6.45161Z" fill="#81ABFF"/>
</svg>
